<?xml version="1.0" encoding="utf-8" ?>
<svg baseProfile="full" height="200mm" version="1.1" viewBox="0,0,200,200" width="200mm" xmlns="http://www.w3.org/2000/svg" xmlns:ev="http://www.w3.org/2001/xml-events" xmlns:xlink="http://www.w3.org/1999/xlink"><defs /><rect fill="#1a1a1a" height="200" width="200" x="0" y="0" /><rect fill="#1a1a1a" height="200" width="180" x="10" y="0" /><text alignment-baseline="middle" fill="#e1ed5e" style="dominant-baseline: central; font-size:9.0px; font-family:Arial;" text-anchor="middle" x="100.0" y="100.0">2021</text><line stroke="#e1ed5e" stroke-width="0.3" x1="100.0" x2="100.0" y1="15.0" y2="10.0" /><path d="M 100.0 14.0 a86.0,86.0 0 0,1 42.46469731375804,11.215312516191453" fill="none" id="id61" stroke="none" /><text fill="#e1ed5e" style="font-size:6.75px; font-family:Arial;" text-anchor="middle"><textPath startOffset="22.20632615414155" xlink:href="#id61">January</textPath></text><line stroke="#e1ed5e" stroke-width="0.3" x1="143.23703022742887" x2="145.7803849466894" y1="26.81831364943548" y2="22.513508569990506" /><path d="M 143.74570117128098 25.957352633546492 a86.0,86.0 0 0,1 28.547481713284135,27.462654790039103" fill="none" id="id62" stroke="none" /><text fill="#e1ed5e" style="font-size:6.75px; font-family:Arial;" text-anchor="middle"><textPath startOffset="19.985693538727396" xlink:href="#id62">February</textPath></text><line stroke="#e1ed5e" stroke-width="0.3" x1="172.23445277983987" x2="176.4835382374775" y1="55.19839476539836" y2="52.563006222186495" /><path d="M 173.08426987136738 54.67131705675599 a86.0,86.0 0 0,1 12.851231095245387,41.99856678651699" fill="none" id="id63" stroke="none" /><text fill="#e1ed5e" style="font-size:6.75px; font-family:Arial;" text-anchor="middle"><textPath startOffset="22.20632615414155" xlink:href="#id63">March</textPath></text><path d="M 119.196687751892 91.48605970444005 l 29.41433581741826 -13.045578602921596 a53.17748083155144,53.17748083155144 0 0,0 0.36390942965031947,0.8399531371692928 l -29.634535956911257 12.5373263211657" fill="red" stroke="none" /><path d="M 119.34039704204932 91.81776055985345 l 36.53033112602859 -15.45469389543269 a60.665005427691774,60.665005427691774 0 0,0 0.398593100664409,0.9652248093800101 l -36.7909459135792 14.823594515599376" fill="red" stroke="none" /><line stroke="#e1ed5e" stroke-width="0.3" x1="184.98032266829074" x2="189.97916517819016" y1="98.17113171792111" y2="98.06355123074" /><path d="M 185.9800911702706 98.14961562048488 a86.0,86.0 0 0,1 -9.607161424134198,41.387399972396054" fill="none" id="id64" stroke="none" /><text fill="#e1ed5e" style="font-size:6.75px; font-family:Arial;" text-anchor="middle"><textPath startOffset="21.466115282336823" xlink:href="#id64">April</textPath></text><path d="M 120.92983693683757 101.71520430193887 l 13.931802539067728 1.141713990457034 a34.97850610128204,34.97850610128204 0 0,0 -0.0543422801513862,0.5996625332013769 l -13.910085662639267 -1.3813579122069812" fill="red" stroke="none" /><path d="M 120.81339534386255 102.79330883721812 l 53.61190003546928 7.19510640503401 a75.09256308951271,75.09256308951271 0 0,0 -0.18296105962241202,1.2796292248656622 l -53.48010492483027 -8.11688110188008" fill="red" stroke="none" /><path d="M 120.02730092923936 106.31721596034902 l 13.324911883829449 4.2030799017892795 a34.97208493291693,34.97208493291693 0 0,0 -0.18603108976784644,0.5725448223812768 l -13.250588543045355 -4.431823624148351" fill="red" stroke="none" /><line stroke="#e1ed5e" stroke-width="0.3" x1="174.80103733775053" x2="179.2010983576182" y1="140.37084112569926" y2="142.7455964860345" /><path d="M 175.68104954172406 140.8457921977663 a86.0,86.0 0 0,1 -30.038265399797805,32.042727171017184" fill="none" id="id65" stroke="none" /><text fill="#e1ed5e" style="font-size:6.75px; font-family:Arial;" text-anchor="middle"><textPath startOffset="22.206326154141568" xlink:href="#id65">May</textPath></text><path d="M 116.93607887273984 112.41649034213515 l 10.390060944772532 7.617353009769807 a33.88322293960392,33.88322293960392 0 0,0 -0.3488983432737024,0.4674063469675135 l -10.257401334803738 -7.795072236246636" fill="red" stroke="none" /><path d="M 112.04921762599082 117.19931262002967 l 7.8610560804820215 11.221040672396137 a34.70065533002169,34.70065533002169 0 0,0 -0.4921595851962481,0.3385118504486753 l -7.66673961066289 -11.354693312209907" fill="red" stroke="none" /><line stroke="#e1ed5e" stroke-width="0.3" x1="143.8653032363475" x2="146.44561519142675" y1="172.8068346515853" y2="177.08958963109032" /><path d="M 144.38136562736335 173.6633856474863 a86.0,86.0 0 0,1 -40.68145358897372,12.25698825130547" fill="none" id="id66" stroke="none" /><text fill="#e1ed5e" style="font-size:6.75px; font-family:Arial;" text-anchor="middle"><textPath startOffset="21.466115282336833" xlink:href="#id66">June</textPath></text><path d="M 109.89434966115114 118.52300852407294 l 6.541774603355804 12.24672170383209 a34.88441599247959,34.88441599247959 0 0,0 -0.5320855144019724,0.27836199322066757 l -6.329998186427336 -12.357513115997474" fill="red" stroke="none" /><path d="M 108.92500713936063 119.00905698771935 l 17.15263797371749 36.53279685280708 a61.359115889051466,61.359115889051466 0 0,0 -0.9599253962366313,0.4406546680447095 l -16.52124458171344 -36.822638591185864" fill="red" stroke="none" /><path d="M 108.59647513512805 119.15986991738527 l 6.180674668602322 13.775520872292374 a36.098533526871584,36.098533526871584 0 0,0 -0.5691180059962428,0.24948460899226746 l -5.942635987948325 -13.879870034579096" fill="red" stroke="none" /><path d="M 107.93186726928326 119.44442032107085 l 22.507100488221823 55.17458969546142 a80.58863079857963,80.58863079857963 0 0,0 -1.2889534569469638,0.5129011814868777 l -21.554025955232994 -55.55383772135436" fill="red" stroke="none" /><line stroke="#e1ed5e" stroke-width="0.3" x1="102.19456741930631" x2="102.32365962044197" y1="184.97166512339345" y2="189.96999836594603" /><path d="M 102.22038585953345 185.97133177190398 a86.0,86.0 0 0,1 -42.740103519485714,-10.115201625700543" fill="none" id="id67" stroke="none" /><text fill="#e1ed5e" style="font-size:6.75px; font-family:Arial;" text-anchor="middle"><textPath startOffset="22.20632615414155" xlink:href="#id67">July</textPath></text><line stroke="#e1ed5e" stroke-width="0.3" x1="58.666819895761336" x2="56.23545636021788" y1="174.27360380694188" y2="178.64263932499728" /><path d="M 58.180547188652646 175.14741091055294 a86.0,86.0 0 0,1 -31.652253787137756,-30.449443065178592" fill="none" id="id68" stroke="none" /><text fill="#e1ed5e" style="font-size:6.75px; font-family:Arial;" text-anchor="middle"><textPath startOffset="22.20632615414155" xlink:href="#id68">August</textPath></text><path d="M 87.65650970185807 116.9893568818739 l -37.030470894425804 50.968070645621694 a84.0,84.0 0 0,0 -1.1624601183257428,-0.8599602050409332 l 37.902315983170105 -50.323100491841" fill="red" stroke="none" /><path d="M 82.6465618267979 111.8261652097733 l -17.475413592954784 11.909290032135834 a42.14760670417243,42.14760670417243 0 0,0 -0.4034065743765971,-0.603038093770242 l 17.67782327274211 -11.606715024159772" fill="red" stroke="none" /><line stroke="#e1ed5e" stroke-width="0.3" x1="26.63291911575756" x2="22.317208475507996" y1="142.92168965132927" y2="145.44649492493687" /><path d="M 25.769776987707644 143.4266507060508 a86.0,86.0 0 0,1 -11.730757126820373,-40.83630448921669" fill="none" id="id69" stroke="none" /><text fill="#e1ed5e" style="font-size:6.75px; font-family:Arial;" text-anchor="middle"><textPath startOffset="21.46611528233685" xlink:href="#id69">September</textPath></text><path d="M 79.18660465613746 102.79330883721812 l -31.59894989226348 4.240808600548686 a52.88225355711647,52.88225355711647 0 0,0 -0.11331531417598754,-0.9032345459147243 l 31.667266715686313 -3.6962563003465525" fill="red" stroke="none" /><line stroke="#e1ed5e" stroke-width="0.3" x1="15.007084014347285" x2="10.007500721073583" y1="101.09737516637583" y2="101.16192664675087" /><path d="M 14.007167355692545 101.11028546245083 a86.0,86.0 0 0,1 10.666146001902534,-42.60595125391555" fill="none" id="id70" stroke="none" /><text fill="#e1ed5e" style="font-size:6.75px; font-family:Arial;" text-anchor="middle"><textPath startOffset="22.20632615414155" xlink:href="#id70">October</textPath></text><path d="M 80.803312248108 91.48605970444005 l -40.06555130573865 -17.769508788938474 a64.8292578540059,64.8292578540059 0 0,0 0.46120671030352,-1.0162078508876695 l 39.75374227847178 18.456538648668214" fill="red" stroke="none" /><path d="M 80.95270993114464 91.15688171328213 l -35.83578822717278 -16.637543348427865 a60.50963890664645,60.50963890664645 0 0,0 0.44673922409856615,-0.9409467386580064 l 35.54409080923246 17.251932502726405" fill="red" stroke="none" /><path d="M 81.10775173730289 90.83032412892265 l -37.20565124399307 -18.058399282916067 a62.356574678651356,62.356574678651356 0 0,0 0.4769980642213382,-0.9615989906537948 l 36.88929316681831 18.696157862068826" fill="red" stroke="none" /><line stroke="#e1ed5e" stroke-width="0.3" x1="26.266209847984243" x2="21.928928074336255" y1="57.711370442889674" y2="55.22380399835377" /><path d="M 25.398753493254645 57.213857153982495 a86.0,86.0 0 0,1 29.58750427330803,-30.492523968695096" fill="none" id="id71" stroke="none" /><text fill="#e1ed5e" style="font-size:6.75px; font-family:Arial;" text-anchor="middle"><textPath startOffset="21.46611528233685" xlink:href="#id71">November</textPath></text><line stroke="#e1ed5e" stroke-width="0.3" x1="56.762969772571076" x2="54.21961505331055" y1="26.818313649435495" y2="22.513508569990535" /><path d="M 56.25429882871897 25.957352633546506 a86.0,86.0 0 0,1 42.265352541879196,-11.944610805530505" fill="none" id="id72" stroke="none" /><text fill="#e1ed5e" style="font-size:6.75px; font-family:Arial;" text-anchor="middle"><textPath startOffset="22.20632615414155" xlink:href="#id72">December</textPath></text></svg>